<svg xmlns="http://www.w3.org/2000/svg" xmlns:xlink="http://www.w3.org/1999/xlink" viewBox="0 0 101 24" fill="#fff" fill-rule="evenodd" stroke="#000" stroke-linecap="round" stroke-linejoin="round"><use xlink:href="#A" x=".5" y=".5"/><symbol id="A" overflow="visible"><g stroke="none" fill-rule="nonzero"><path d="M29.244 22.875H1.958C.892 22.875 0 22.035 0 20.942V2.064C0 .998.867.106 1.958.106h27.286c1.066 0 1.958.867 1.958 1.958v18.853c-.025 1.115-.892 1.958-1.958 1.958z" fill="#f2f2f2"/><path d="M3.891 22.875l11.673-8.543.074-.495L3.619 5.187l-.025 17.264z" fill="#221f1f" opacity=".1"/><g fill="#d44c3d"><path d="M1.958 22.875C.867 22.875 0 22.034 0 20.941V2.036C0 .945.867.747 1.958.747S3.916.97 3.916 2.036v20.836z"/><path d="M1.958 1.048c1.388 0 1.66.425 1.66.991v20.563h-1.66a1.66 1.66 0 0 1-1.66-1.66V2.039c-.025-.595.272-.991 1.66-.991zm0-.273C.867.775 0 .998 0 2.039v18.878a1.93 1.93 0 0 0 1.958 1.958h1.958V2.039C3.891.973 3.048.775 1.958.775zm27.286.273c1.264 0 1.66.248 1.66.942v18.977a1.66 1.66 0 0 1-1.66 1.66h-1.66V1.989c-.025-.719.396-.942 1.66-.942zm0-.273c-1.09 0-1.958.149-1.958 1.217v20.91h1.958c1.09 0 1.958-.867 1.958-1.958V1.965C31.177.899 30.31.775 29.244.775z"/><path d="M29.244 22.874h-1.958V1.989c0-1.09.867-1.217 1.958-1.217s1.958.149 1.958 1.217v18.977c-.025 1.066-.892 1.908-1.958 1.908z"/></g><path d="M20.891 22.875L.173 2.856l1.091.446 14.423 10.384L31.202 2.308v18.655c0 1.066-.867 1.933-1.958 1.933z" fill="#221f1f" opacity=".08"/><g fill="#d44c3d"><path d="M15.564 14.356L.843 3.675C-.024 3.03-.272 1.791.372.924S2.256-.142 3.148.502l12.438 9.046L28.102.378c.871-.644 2.088-.446 2.729.446.644.867.446 2.082-.446 2.726z"/><path d="M29.244.304a1.69 1.69 0 0 1 1.363.694 1.69 1.69 0 0 1-.372 2.33L15.564 14.01 1.016 3.452C.272 2.907.074 1.841.591 1.122.888.676 1.412.404 1.979.404c.372 0 .719.099.991.322l12.417 9.021.174.099.174-.099L28.225.577a2.08 2.08 0 0 1 1.019-.273zm0-.297c-.396 0-.821.099-1.14.372L15.585 9.548 3.122.478C2.8.23 2.379.106 1.957.106 1.335.131.718.403.347.927c-.623.867-.372 2.082.495 2.726l14.721 10.706L30.387 3.554a1.97 1.97 0 0 0 .446-2.726c-.396-.521-.991-.821-1.586-.821z"/></g><path d="M58.688 12.129c0 2.341-.694 4.206-2.083 5.595-1.561 1.654-3.613 2.482-6.156 2.482-2.434 0-4.494-.843-6.18-2.528s-2.528-3.761-2.528-6.226.843-4.541 2.528-6.226 3.745-2.528 6.18-2.528c1.233 0 2.395.219 3.488.655s1.99 1.053 2.689 1.849l-1.545 1.545c-.515-.624-1.182-1.112-2.001-1.463s-1.697-.526-2.633-.526c-1.825 0-3.368.632-4.635 1.896-1.249 1.279-1.873 2.879-1.873 4.798s.624 3.52 1.873 4.799c1.264 1.264 2.809 1.896 4.635 1.896 1.67 0 3.059-.468 4.167-1.405s1.748-2.224 1.919-3.862h-6.086v-2.013h8.123c.076.417.115.84.117 1.264zm4.398 7.699h-2.151V8.361h2.06v1.592h.093c.328-.562.831-1.03 1.51-1.405s1.353-.562 2.025-.562c.843 0 1.584.198 2.224.585a3.45 3.45 0 0 1 1.404 1.615c.952-1.467 2.271-2.2 3.957-2.2 1.326 0 2.349.406 3.066 1.217s1.077 1.966 1.077 3.464v7.16H76.2v-6.832c0-1.077-.198-1.853-.585-2.329s-1.046-.714-1.966-.714c-.827 0-1.522.351-2.083 1.053s-.843 1.529-.843 2.482v6.34h-2.151v-6.832c0-1.077-.198-1.853-.585-2.329s-1.045-.714-1.966-.714c-.828 0-1.522.351-2.083 1.053s-.843 1.529-.843 2.482v6.34zM85.113 7.986c1.592 0 2.848.425 3.769 1.275s1.381 2.017 1.381 3.499v7.066h-2.06v-1.592h-.093c-.89 1.311-2.076 1.966-3.558 1.966-1.264 0-2.321-.375-3.172-1.124s-1.276-1.685-1.276-2.809c0-1.189.449-2.13 1.346-2.832s2.095-1.053 3.593-1.053c1.279 0 2.333.234 3.16.702v-.492c0-.749-.297-1.385-.89-1.908a3.05 3.05 0 0 0-2.083-.784c-1.202 0-2.151.507-2.858 1.522l-1.896-1.194c1.045-1.498 2.59-2.247 4.635-2.247zm-2.786 8.333c0 .561.238 1.03.714 1.404s1.033.562 1.674.562c.905 0 1.712-.335 2.423-1.007s1.065-1.459 1.065-2.364c-.671-.53-1.608-.796-2.809-.796-.874 0-1.603.211-2.189.632s-.878.944-.878 1.569zM95.483 4.404c.007.405-.154.795-.445 1.077-.297.297-.655.444-1.077.444s-.781-.148-1.077-.444-.444-.655-.444-1.077c-.007-.405.154-.795.445-1.077.282-.291.672-.451 1.077-.445.405-.007.795.154 1.077.445a1.47 1.47 0 0 1 .445 1.077zm-.445 3.956v11.467h-2.151V8.361zM100 3.073v16.754h-2.151V3.073z" fill="#787879"/></g></symbol></svg>
