<?xml version="1.0" encoding="utf-8"?>
<!-- Generator: Adobe Illustrator 16.0.0, SVG Export Plug-In . SVG Version: 6.00 Build 0)  -->
<svg xmlns="http://www.w3.org/2000/svg" xmlns:xlink="http://www.w3.org/1999/xlink" version="1.1" id="Layer_1" x="0px" y="0px" width="64px" height="64px" viewBox="0 0 64 64" style="enable-background:new 0 0 64 64;" xml:space="preserve">

<g>
	<defs>
		<path id="57630650_SVGID_1_" d="M14.333,6h35.333C50.955,6,52,7.044,52,8.333v47.333C52,56.955,50.955,58,49.667,58H14.333    C13.044,58,12,56.955,12,55.667V8.333C12,7.044,13.044,6,14.333,6z"></path>
	</defs>
	<use xlink:href="#57630650_SVGID_1_" style="overflow:visible;fill:#47475E;"></use>
	<clipPath id="57630650_SVGID_2_">
		<use xlink:href="#57630650_SVGID_1_" style="overflow:visible;"></use>
	</clipPath>
	<g class="st2" style="clip-path:url(#57630650_SVGID_2_);;">
		<g class="st1" style="opacity:0.15;;">
			<rect x="30" y="5.667" class="st4" width="18" height="53.333" style="fill:#FFFFFF;;"></rect>
		</g>
	</g>
	<g class="st2" style="clip-path:url(#57630650_SVGID_2_);;">
		<defs>
			<path id="57630650_SVGID_3_" d="M10,14h44v3H10V14z M10,24h44v-3H10V24z M10,31h44v-3H10V31z"></path>
		</defs>
		<use xlink:href="#57630650_SVGID_3_" style="overflow:visible;opacity:0.6;fill:#231F20;"></use>
		<clipPath id="57630650_SVGID_4_">
			<use xlink:href="#57630650_SVGID_3_" style="overflow:visible;opacity:0.6;"></use>
		</clipPath>
		<g class="st3" style="clip-path:url(#57630650_SVGID_4_);;">
			<rect x="30" y="6" class="st5" width="18" height="53" style="fill:#93C1CF;;"></rect>
		</g>
	</g>
</g>
<rect x="10" y="36" class="stshockcolor" width="44" height="18" style="fill:#9487A3;;" data-st="fill:#9487A3;;"></rect>
<polygon class="st0" points="30,38 28,41.464 26,38 23,38 23,52 26,52 26,44.001 28,47.465 30,44.001 30,52 33,52 33,38 " style="fill:#E6E6E6;;"></polygon>
<path class="st0" d="M47.417,38C51.205,38,52,40.031,52,42.563c0,2.5-1.25,4.438-4.583,4.438C47.026,47,47,47,47,47v5h-3V38H47.417z   M47,44h1.031c0.873,0,1.031-0.813,1.031-1.5c0-0.771-0.158-1.5-1.031-1.5H47V44z" style="fill:#E6E6E6;;"></path>
<path class="st0" d="M17.476,52c-2.042,0-3.84-1.132-4.476-3.026l2.844-0.955C16.131,48.872,16.781,49,17.458,49  C18.395,49,19,48.48,19,47.677c0-0.648-0.114-1.104-1.64-1.515c-0.871-0.235-3.796-0.858-4.274-3.578  c-0.207-1.173,0.104-2.275,0.76-3.104c0.755-0.955,1.848-1.48,3.316-1.48c1.989,0,3.508,1.184,4.057,3.089l-2.883,0.83  C18.158,41.301,17.776,41,17.103,41c-0.958,0-1.141,0.622-1.064,1.063c0.073,0.412,0.231,0.813,1.6,1.182  C19.974,43.873,22,44.358,22,47.677C22,49.825,20.33,52,17.476,52z" style="fill:#E6E6E6;;"></path>
<polygon class="st0" points="34,38 34,41 37,41 37,52 40,52 40,41 43,41 43,38 " style="fill:#E6E6E6;;"></polygon>
</svg>
