<?xml version="1.0" encoding="UTF-8" standalone="no"?>
<!-- Created with Inkscape (http://www.inkscape.org/) -->
<svg xmlns="http://www.w3.org/2000/svg" xmlns:xlink="http://www.w3.org/1999/xlink" version="1.1" id="58646179_Capa_1_grid" x="0px" y="0px" width="24px" height="24px" viewBox="0 0 24 24" style="enable-background:new 0 0 24 24;" xml:space="preserve">

<rect class="st1" width="24" height="24" style="fill:none;;"></rect>
<polygon id="58646179_shock_x5F_color_grid" class="stshockcolor" points="23.26,12.5 17.79,19.609 16.21,18.391 17.279,17 6.72,17 7.79,18.391   6.21,19.609 0.74,12.5 6.21,5.39 7.79,6.61 6.72,8 17.279,8 16.21,6.61 17.79,5.39 " style="fill:#0288D1;;" data-st="fill:#0288D1;;"></polygon>
<path class="st0" d="M21,10h-3v5h1v-2h2V10z M20,12h-1v-1h1V12z M5,11v1h2v3H4v-1h2v-1H4v-3h3v1H5z M17,10v1h-1v4h-1v-4h-1v-1H17z   M13,10v5h-1v-2.5L10.957,15h-0.914L9,12.5V15H8v-5h1l1.5,3.52L12,10H13z" style="opacity:0.9;fill:#FFFFFF;enable-background:new    ;;"></path>
</svg>
